M48
;Layer_Color=9474304
;FILE_FORMAT=2:4
INCH
;TYPE=PLATED
T4F00S00C0.0280
;TYPE=NON_PLATED
T1F00S00C0.0394
T2F00S00C0.0591
T3F00S00C0.1969
%
T04
X016200Y030900
X023400Y030500
X024400Y030550
X027100Y031150
X029750Y031350
X029750Y033100
X029750Y034750
X026900Y034950
X025800Y033100
X022900Y033300
X022900Y035150
X022990Y038500
X023550Y039350
X022429Y039350
X021600Y039850
X021600Y037950
X019100Y038100
X018850Y036900
X016200Y036500
X016200Y033700
X020400Y033600
X021400Y031600
X018850Y031650
X025150Y037600
X024900Y039500
X026950Y039050
X028850Y039800
X028850Y040700
X029500Y040300
X028350Y037750
X032250Y039350
T01
X023674Y040650
X026626Y040650
T02
X012450Y037976
X012450Y042700
X011750Y046231
X013719Y046231
X015687Y046231
X017253Y042700
X018041Y040338
X017253Y037976
X020500Y042700
X031500Y045700
X031500Y048700
X020500Y048700
X015687Y048200
X013719Y048200
X011750Y048200
T03
X022047Y046063
X029921Y038189
M30
