G04 Layer_Physical_Order=1*
G04 Layer_Color=255*
%FSAX24Y24*%
%MOIN*%
G70*
G01*
G75*
%ADD10C,0.0157*%
%ADD11R,0.0197X0.0197*%
%ADD12R,0.0236X0.0394*%
%ADD13R,0.0394X0.0512*%
%ADD14R,0.0394X0.0236*%
%ADD15R,0.0256X0.0354*%
G04:AMPARAMS|DCode=16|XSize=17.7mil|YSize=33.5mil|CornerRadius=4.4mil|HoleSize=0mil|Usage=FLASHONLY|Rotation=90.000|XOffset=0mil|YOffset=0mil|HoleType=Round|Shape=RoundedRectangle|*
%AMROUNDEDRECTD16*
21,1,0.0177,0.0246,0,0,90.0*
21,1,0.0089,0.0335,0,0,90.0*
1,1,0.0089,0.0123,0.0044*
1,1,0.0089,0.0123,-0.0044*
1,1,0.0089,-0.0123,-0.0044*
1,1,0.0089,-0.0123,0.0044*
%
%ADD16ROUNDEDRECTD16*%
%ADD17R,0.0551X0.0984*%
%ADD18R,0.0512X0.0394*%
%ADD19R,0.0472X0.0709*%
G04:AMPARAMS|DCode=20|XSize=128mil|YSize=135mil|CornerRadius=32mil|HoleSize=0mil|Usage=FLASHONLY|Rotation=270.000|XOffset=0mil|YOffset=0mil|HoleType=Round|Shape=RoundedRectangle|*
%AMROUNDEDRECTD20*
21,1,0.1280,0.0711,0,0,270.0*
21,1,0.0640,0.1350,0,0,270.0*
1,1,0.0640,-0.0355,-0.0320*
1,1,0.0640,-0.0355,0.0320*
1,1,0.0640,0.0355,0.0320*
1,1,0.0640,0.0355,-0.0320*
%
%ADD20ROUNDEDRECTD20*%
%ADD21R,0.0236X0.0453*%
G04:AMPARAMS|DCode=22|XSize=118.1mil|YSize=78.7mil|CornerRadius=19.7mil|HoleSize=0mil|Usage=FLASHONLY|Rotation=270.000|XOffset=0mil|YOffset=0mil|HoleType=Round|Shape=RoundedRectangle|*
%AMROUNDEDRECTD22*
21,1,0.1181,0.0394,0,0,270.0*
21,1,0.0787,0.0787,0,0,270.0*
1,1,0.0394,-0.0197,-0.0394*
1,1,0.0394,-0.0197,0.0394*
1,1,0.0394,0.0197,0.0394*
1,1,0.0394,0.0197,-0.0394*
%
%ADD22ROUNDEDRECTD22*%
%ADD23R,0.0315X0.0236*%
%ADD24C,0.1181*%
%ADD25C,0.0591*%
%ADD26C,0.0787*%
%ADD27C,0.0197*%
%ADD28C,0.0118*%
%ADD29C,0.0315*%
%ADD30C,0.0236*%
%ADD31C,0.0120*%
%ADD32C,0.0098*%
%ADD33C,0.0400*%
%ADD34R,0.1400X1.0200*%
%ADD35R,0.3400X0.2050*%
%ADD36C,0.1181*%
G04:AMPARAMS|DCode=37|XSize=78.7mil|YSize=78.7mil|CornerRadius=19.7mil|HoleSize=0mil|Usage=FLASHONLY|Rotation=180.000|XOffset=0mil|YOffset=0mil|HoleType=Round|Shape=RoundedRectangle|*
%AMROUNDEDRECTD37*
21,1,0.0787,0.0394,0,0,180.0*
21,1,0.0394,0.0787,0,0,180.0*
1,1,0.0394,-0.0197,0.0197*
1,1,0.0394,0.0197,0.0197*
1,1,0.0394,0.0197,-0.0197*
1,1,0.0394,-0.0197,-0.0197*
%
%ADD37ROUNDEDRECTD37*%
G04:AMPARAMS|DCode=38|XSize=118.1mil|YSize=118.1mil|CornerRadius=29.5mil|HoleSize=0mil|Usage=FLASHONLY|Rotation=90.000|XOffset=0mil|YOffset=0mil|HoleType=Round|Shape=RoundedRectangle|*
%AMROUNDEDRECTD38*
21,1,0.1181,0.0591,0,0,90.0*
21,1,0.0591,0.1181,0,0,90.0*
1,1,0.0591,0.0295,0.0295*
1,1,0.0591,0.0295,-0.0295*
1,1,0.0591,-0.0295,-0.0295*
1,1,0.0591,-0.0295,0.0295*
%
%ADD38ROUNDEDRECTD38*%
G04:AMPARAMS|DCode=39|XSize=118.1mil|YSize=118.1mil|CornerRadius=29.5mil|HoleSize=0mil|Usage=FLASHONLY|Rotation=0.000|XOffset=0mil|YOffset=0mil|HoleType=Round|Shape=RoundedRectangle|*
%AMROUNDEDRECTD39*
21,1,0.1181,0.0591,0,0,0.0*
21,1,0.0591,0.1181,0,0,0.0*
1,1,0.0591,0.0295,-0.0295*
1,1,0.0591,-0.0295,-0.0295*
1,1,0.0591,-0.0295,0.0295*
1,1,0.0591,0.0295,0.0295*
%
%ADD39ROUNDEDRECTD39*%
%ADD40C,0.1968*%
%ADD41C,0.0500*%
G36*
X020063Y039222D02*
X019907Y039066D01*
X019863Y039001D01*
X019848Y038923D01*
X019848Y038334D01*
X019502Y037988D01*
X019446Y038008D01*
X019441Y038012D01*
X019446Y038050D01*
X018754Y038050D01*
X018759Y038009D01*
X018794Y037923D01*
X018841Y037862D01*
X018823Y037802D01*
X017976Y037802D01*
X017936Y037862D01*
X017947Y037976D01*
X017934Y038111D01*
X017894Y038241D01*
X017830Y038361D01*
X017744Y038466D01*
X017654Y038540D01*
X017673Y038600D01*
X019600Y038600D01*
X019750Y038750D01*
X019750Y039292D01*
X019793Y039344D01*
X019941Y039344D01*
X020063Y039222D01*
X020063Y039222D02*
G37*
G36*
X026257Y039647D02*
X026257Y039253D01*
X026265Y039214D01*
X026287Y039181D01*
X026320Y039159D01*
X026359Y039151D01*
X026551Y039151D01*
X026597Y039100D01*
X026950Y039100D01*
X026950Y039000D01*
X026604Y039000D01*
X026609Y038959D01*
X026644Y038873D01*
X026658Y038855D01*
X026632Y038802D01*
X026546Y038802D01*
X026507Y038794D01*
X026487Y038780D01*
X026467Y038794D01*
X026428Y038802D01*
X026350Y038802D01*
X026350Y038522D01*
X026250Y038522D01*
X026250Y038802D01*
X026172Y038802D01*
X026132Y038855D01*
X026132Y039250D01*
X026118Y039320D01*
X026107Y039337D01*
X026107Y039647D01*
X026151Y039694D01*
X026213Y039694D01*
X026257Y039647D01*
X026257Y039647D02*
G37*
G36*
X022050Y040050D02*
X022347Y039753D01*
X022342Y039720D01*
X022328Y039687D01*
X022253Y039656D01*
X022180Y039600D01*
X022123Y039527D01*
X022088Y039441D01*
X022076Y039350D01*
X022088Y039259D01*
X022123Y039173D01*
X022180Y039100D01*
X022203Y039082D01*
X022202Y039042D01*
X022170Y038994D01*
X022159Y038938D01*
X022159Y038849D01*
X022170Y038793D01*
X022202Y038745D01*
X022223Y038731D01*
X022223Y038662D01*
X022202Y038648D01*
X022170Y038601D01*
X022160Y038550D01*
X022429Y038550D01*
X022429Y038450D01*
X022144Y038450D01*
X022102Y038434D01*
X021819Y038717D01*
X021819Y039109D01*
X021803Y039186D01*
X021760Y039252D01*
X021618Y039393D01*
X021553Y039437D01*
X021475Y039452D01*
X021152Y039452D01*
X021146Y039459D01*
X021146Y039550D01*
X021151Y039556D01*
X021177Y039619D01*
X021186Y039686D01*
X021186Y040024D01*
X021177Y040091D01*
X021151Y040154D01*
X021110Y040208D01*
X020534Y040784D01*
X020423Y040895D01*
X020446Y040950D01*
X022050Y040950D01*
X022050Y040050D01*
X022050Y040050D02*
G37*
G36*
X025667Y039647D02*
X025667Y039253D01*
X025675Y039214D01*
X025697Y039181D01*
X025730Y039159D01*
X025768Y039151D01*
X025768Y038796D01*
X025759Y038794D01*
X025726Y038772D01*
X025704Y038739D01*
X025696Y038700D01*
X025696Y038345D01*
X025699Y038332D01*
X025664Y038279D01*
X025654Y038272D01*
X025385Y038272D01*
X025221Y038437D01*
X025244Y038492D01*
X025451Y038492D01*
X025490Y038500D01*
X025523Y038522D01*
X025545Y038555D01*
X025553Y038594D01*
X025553Y038800D01*
X025254Y038800D01*
X024956Y038800D01*
X024956Y038780D01*
X024900Y038758D01*
X024844Y038813D01*
X024844Y039094D01*
X024859Y039113D01*
X024900Y039123D01*
X024941Y039113D01*
X024956Y039094D01*
X024956Y038900D01*
X025204Y038900D01*
X025204Y039208D01*
X025187Y039208D01*
X025163Y039268D01*
X025206Y039323D01*
X025241Y039409D01*
X025246Y039450D01*
X024554Y039450D01*
X024559Y039409D01*
X024594Y039323D01*
X024637Y039268D01*
X024613Y039208D01*
X024349Y039208D01*
X024310Y039200D01*
X024277Y039178D01*
X024255Y039145D01*
X024247Y039106D01*
X024247Y038866D01*
X024104Y038722D01*
X023855Y038722D01*
X023823Y038782D01*
X023830Y038793D01*
X023841Y038849D01*
X023841Y038938D01*
X023830Y038994D01*
X023798Y039042D01*
X023797Y039061D01*
X023806Y039109D01*
X023856Y039173D01*
X023891Y039259D01*
X023903Y039350D01*
X023891Y039441D01*
X023856Y039527D01*
X023800Y039600D01*
X023747Y039640D01*
X023767Y039700D01*
X024539Y039700D01*
X024579Y039640D01*
X024559Y039591D01*
X024554Y039550D01*
X025246Y039550D01*
X025241Y039591D01*
X025221Y039640D01*
X025261Y039700D01*
X025617Y039700D01*
X025667Y039647D01*
X025667Y039647D02*
G37*
G36*
X021080Y039026D02*
X021080Y038850D01*
X021300Y038850D01*
X021300Y038750D01*
X021080Y038750D01*
X021080Y038574D01*
X021088Y038535D01*
X021105Y038509D01*
X021097Y038478D01*
X021081Y038449D01*
X020977Y038449D01*
X020938Y038441D01*
X020905Y038419D01*
X020883Y038386D01*
X020875Y038347D01*
X020875Y038200D01*
X021095Y038200D01*
X021095Y038100D01*
X020875Y038100D01*
X020875Y037953D01*
X020883Y037914D01*
X020905Y037881D01*
X020905Y037819D01*
X020883Y037786D01*
X020875Y037747D01*
X020875Y037353D01*
X020883Y037314D01*
X020905Y037281D01*
X020938Y037259D01*
X020977Y037251D01*
X021163Y037251D01*
X021211Y037203D01*
X021208Y037177D01*
X021190Y037141D01*
X021126Y037133D01*
X021053Y037103D01*
X020991Y037055D01*
X020944Y036993D01*
X020932Y036966D01*
X020868Y036966D01*
X020856Y036993D01*
X020809Y037055D01*
X020747Y037103D01*
X020674Y037133D01*
X020597Y037143D01*
X020450Y037143D01*
X020450Y036450D01*
X020450Y035757D01*
X020597Y035757D01*
X020674Y035767D01*
X020747Y035797D01*
X020809Y035845D01*
X020856Y035907D01*
X020868Y035934D01*
X020932Y035934D01*
X020944Y035907D01*
X020991Y035845D01*
X021053Y035797D01*
X021126Y035767D01*
X021203Y035757D01*
X021597Y035757D01*
X021674Y035767D01*
X021747Y035797D01*
X021809Y035845D01*
X021856Y035907D01*
X021868Y035934D01*
X021932Y035934D01*
X021944Y035907D01*
X021991Y035845D01*
X022053Y035797D01*
X022126Y035767D01*
X022203Y035757D01*
X022597Y035757D01*
X022674Y035767D01*
X022747Y035797D01*
X022809Y035845D01*
X022856Y035907D01*
X022868Y035934D01*
X022932Y035934D01*
X022944Y035907D01*
X022991Y035845D01*
X023053Y035797D01*
X023126Y035767D01*
X023203Y035757D01*
X023597Y035757D01*
X023674Y035767D01*
X023747Y035797D01*
X023809Y035845D01*
X023856Y035907D01*
X023868Y035934D01*
X023932Y035934D01*
X023944Y035907D01*
X023991Y035845D01*
X024053Y035797D01*
X024126Y035767D01*
X024203Y035757D01*
X024597Y035757D01*
X024674Y035767D01*
X024747Y035797D01*
X024809Y035845D01*
X024856Y035907D01*
X024868Y035934D01*
X024932Y035934D01*
X024944Y035907D01*
X024991Y035845D01*
X025053Y035797D01*
X025126Y035767D01*
X025203Y035757D01*
X025597Y035757D01*
X025674Y035767D01*
X025747Y035797D01*
X025809Y035845D01*
X025856Y035907D01*
X025868Y035934D01*
X025932Y035934D01*
X025944Y035907D01*
X025991Y035845D01*
X026053Y035797D01*
X026126Y035767D01*
X026203Y035757D01*
X026597Y035757D01*
X026674Y035767D01*
X026747Y035797D01*
X026809Y035845D01*
X026856Y035907D01*
X026868Y035934D01*
X026932Y035934D01*
X026944Y035907D01*
X026991Y035845D01*
X027053Y035797D01*
X027126Y035767D01*
X027203Y035757D01*
X027350Y035757D01*
X027350Y036450D01*
X027350Y037143D01*
X027203Y037143D01*
X027126Y037133D01*
X027053Y037103D01*
X026991Y037055D01*
X026944Y036993D01*
X026932Y036966D01*
X026868Y036966D01*
X026856Y036993D01*
X026809Y037055D01*
X026747Y037103D01*
X026674Y037133D01*
X026597Y037143D01*
X026482Y037143D01*
X026482Y037255D01*
X026483Y037257D01*
X026542Y037299D01*
X026546Y037298D01*
X026802Y037298D01*
X026841Y037306D01*
X026874Y037328D01*
X026892Y037355D01*
X027245Y037355D01*
X027264Y037342D01*
X027303Y037335D01*
X027697Y037335D01*
X027736Y037342D01*
X027755Y037355D01*
X028080Y037355D01*
X028178Y037258D01*
X028178Y037140D01*
X028126Y037133D01*
X028053Y037103D01*
X027991Y037055D01*
X027944Y036993D01*
X027932Y036966D01*
X027868Y036966D01*
X027856Y036993D01*
X027809Y037055D01*
X027747Y037103D01*
X027674Y037133D01*
X027597Y037143D01*
X027450Y037143D01*
X027450Y036450D01*
X027450Y035757D01*
X027597Y035757D01*
X027674Y035767D01*
X027747Y035797D01*
X027809Y035845D01*
X027856Y035907D01*
X027868Y035934D01*
X027932Y035934D01*
X027944Y035907D01*
X027991Y035845D01*
X028053Y035797D01*
X028126Y035767D01*
X028178Y035760D01*
X028178Y030140D01*
X028126Y030133D01*
X028053Y030103D01*
X027991Y030055D01*
X027944Y029993D01*
X027932Y029966D01*
X027868Y029966D01*
X027856Y029993D01*
X027809Y030055D01*
X027747Y030103D01*
X027674Y030133D01*
X027597Y030143D01*
X027203Y030143D01*
X027126Y030133D01*
X027053Y030103D01*
X026991Y030055D01*
X026944Y029993D01*
X026932Y029966D01*
X026868Y029966D01*
X026856Y029993D01*
X026809Y030055D01*
X026747Y030103D01*
X026674Y030133D01*
X026597Y030143D01*
X026203Y030143D01*
X026126Y030133D01*
X026053Y030103D01*
X025991Y030055D01*
X025944Y029993D01*
X025932Y029966D01*
X025868Y029966D01*
X025856Y029993D01*
X025809Y030055D01*
X025747Y030103D01*
X025674Y030133D01*
X025597Y030143D01*
X025203Y030143D01*
X025126Y030133D01*
X025053Y030103D01*
X024991Y030055D01*
X024944Y029993D01*
X024932Y029966D01*
X024868Y029966D01*
X024856Y029993D01*
X024809Y030055D01*
X024747Y030103D01*
X024674Y030133D01*
X024597Y030143D01*
X024582Y030143D01*
X024582Y030249D01*
X024650Y030300D01*
X024706Y030373D01*
X024741Y030459D01*
X024753Y030550D01*
X024741Y030641D01*
X024706Y030727D01*
X024650Y030800D01*
X024577Y030856D01*
X024491Y030891D01*
X024400Y030903D01*
X024309Y030891D01*
X024223Y030856D01*
X024150Y030800D01*
X024094Y030727D01*
X024059Y030641D01*
X024047Y030550D01*
X024059Y030459D01*
X024094Y030373D01*
X024150Y030300D01*
X024218Y030249D01*
X024218Y030143D01*
X024203Y030143D01*
X024126Y030133D01*
X024053Y030103D01*
X023991Y030055D01*
X023944Y029993D01*
X023932Y029966D01*
X023868Y029966D01*
X023856Y029993D01*
X023809Y030055D01*
X023747Y030103D01*
X023674Y030133D01*
X023597Y030143D01*
X023589Y030143D01*
X023588Y030203D01*
X023650Y030250D01*
X023706Y030323D01*
X023741Y030409D01*
X023753Y030500D01*
X023741Y030591D01*
X023706Y030677D01*
X023650Y030750D01*
X023577Y030806D01*
X023491Y030841D01*
X023400Y030853D01*
X023309Y030841D01*
X023223Y030806D01*
X023150Y030750D01*
X023094Y030677D01*
X023059Y030591D01*
X023047Y030500D01*
X023059Y030409D01*
X023094Y030323D01*
X023150Y030250D01*
X023212Y030203D01*
X023211Y030143D01*
X023203Y030143D01*
X023126Y030133D01*
X023053Y030103D01*
X022991Y030055D01*
X022944Y029993D01*
X022932Y029966D01*
X022868Y029966D01*
X022856Y029993D01*
X022809Y030055D01*
X022747Y030103D01*
X022674Y030133D01*
X022597Y030143D01*
X022203Y030143D01*
X022126Y030133D01*
X022053Y030103D01*
X021991Y030055D01*
X021944Y029993D01*
X021932Y029966D01*
X021868Y029966D01*
X021856Y029993D01*
X021809Y030055D01*
X021747Y030103D01*
X021674Y030133D01*
X021597Y030143D01*
X021203Y030143D01*
X021126Y030133D01*
X021053Y030103D01*
X020991Y030055D01*
X020944Y029993D01*
X020932Y029966D01*
X020868Y029966D01*
X020856Y029993D01*
X020809Y030055D01*
X020747Y030103D01*
X020674Y030133D01*
X020597Y030143D01*
X020203Y030143D01*
X020126Y030133D01*
X020053Y030103D01*
X019991Y030055D01*
X019944Y029993D01*
X019932Y029966D01*
X019868Y029966D01*
X019856Y029993D01*
X019809Y030055D01*
X019747Y030103D01*
X019674Y030133D01*
X019597Y030143D01*
X019203Y030143D01*
X019126Y030133D01*
X019053Y030103D01*
X018991Y030055D01*
X018944Y029993D01*
X018932Y029966D01*
X018868Y029966D01*
X018856Y029993D01*
X018809Y030055D01*
X018747Y030103D01*
X018674Y030133D01*
X018597Y030143D01*
X018203Y030143D01*
X018126Y030133D01*
X018053Y030103D01*
X017991Y030055D01*
X017958Y030012D01*
X017898Y030032D01*
X017898Y037398D01*
X019400Y037398D01*
X019477Y037413D01*
X019543Y037457D01*
X020193Y038107D01*
X020222Y038151D01*
X020227Y038151D01*
X020282Y038133D01*
X020282Y037450D01*
X020285Y037438D01*
X020285Y037353D01*
X020292Y037314D01*
X020315Y037281D01*
X020348Y037259D01*
X020387Y037251D01*
X020410Y037251D01*
X020420Y037245D01*
X020505Y037228D01*
X020590Y037245D01*
X020600Y037251D01*
X020623Y037251D01*
X020662Y037259D01*
X020695Y037281D01*
X020717Y037314D01*
X020725Y037353D01*
X020725Y037438D01*
X020727Y037450D01*
X020727Y038150D01*
X020727Y038491D01*
X020742Y038502D01*
X020764Y038535D01*
X020772Y038574D01*
X020772Y039026D01*
X020790Y039048D01*
X021062Y039048D01*
X021080Y039026D01*
X021080Y039026D02*
G37*
G36*
X031098Y041156D02*
X031026Y041156D01*
X030987Y041149D01*
X030953Y041126D01*
X030931Y041093D01*
X030924Y041054D01*
X030924Y040346D01*
X030931Y040307D01*
X030953Y040274D01*
X030977Y040258D01*
X030982Y040225D01*
X030977Y040192D01*
X030953Y040176D01*
X030931Y040143D01*
X030924Y040104D01*
X030924Y039396D01*
X030931Y039357D01*
X030953Y039324D01*
X030987Y039301D01*
X031026Y039294D01*
X031098Y039294D01*
X031098Y030102D01*
X030748Y030102D01*
X030747Y030103D01*
X030674Y030133D01*
X030597Y030143D01*
X030203Y030143D01*
X030126Y030133D01*
X030053Y030103D01*
X029991Y030055D01*
X029944Y029993D01*
X029932Y029966D01*
X029868Y029966D01*
X029856Y029993D01*
X029809Y030055D01*
X029747Y030103D01*
X029674Y030133D01*
X029597Y030143D01*
X029450Y030143D01*
X029450Y029450D01*
X029350Y029450D01*
X029350Y030143D01*
X029203Y030143D01*
X029126Y030133D01*
X029053Y030103D01*
X028991Y030055D01*
X028944Y029993D01*
X028932Y029966D01*
X028868Y029966D01*
X028856Y029993D01*
X028809Y030055D01*
X028747Y030103D01*
X028674Y030133D01*
X028622Y030140D01*
X028622Y035760D01*
X028674Y035767D01*
X028747Y035797D01*
X028809Y035845D01*
X028856Y035907D01*
X028868Y035934D01*
X028932Y035934D01*
X028944Y035907D01*
X028991Y035845D01*
X029053Y035797D01*
X029126Y035767D01*
X029203Y035757D01*
X029597Y035757D01*
X029674Y035767D01*
X029747Y035797D01*
X029809Y035845D01*
X029856Y035907D01*
X029868Y035934D01*
X029932Y035934D01*
X029944Y035907D01*
X029991Y035845D01*
X030053Y035797D01*
X030126Y035767D01*
X030203Y035757D01*
X030597Y035757D01*
X030674Y035767D01*
X030747Y035797D01*
X030809Y035845D01*
X030856Y035907D01*
X030886Y035979D01*
X030896Y036056D01*
X030896Y036844D01*
X030886Y036921D01*
X030856Y036993D01*
X030809Y037055D01*
X030747Y037103D01*
X030674Y037133D01*
X030597Y037143D01*
X030396Y037143D01*
X030381Y037203D01*
X030404Y037215D01*
X030415Y037220D01*
X030432Y037230D01*
X030519Y037277D01*
X030527Y037283D01*
X030535Y037288D01*
X030685Y037411D01*
X030692Y037419D01*
X030699Y037425D01*
X030822Y037575D01*
X030827Y037584D01*
X030834Y037591D01*
X030880Y037678D01*
X030890Y037695D01*
X030895Y037706D01*
X030925Y037762D01*
X030928Y037772D01*
X030933Y037781D01*
X030951Y037842D01*
X030956Y037853D01*
X030960Y037872D01*
X030989Y037966D01*
X030990Y037976D01*
X030993Y037986D01*
X031012Y038179D01*
X031011Y038189D01*
X031012Y038199D01*
X030993Y038392D01*
X030990Y038402D01*
X030989Y038412D01*
X030960Y038505D01*
X030956Y038525D01*
X030951Y038536D01*
X030933Y038597D01*
X030928Y038606D01*
X030925Y038616D01*
X030895Y038672D01*
X030890Y038683D01*
X030880Y038700D01*
X030834Y038787D01*
X030827Y038794D01*
X030822Y038803D01*
X030699Y038953D01*
X030692Y038959D01*
X030685Y038967D01*
X030535Y039090D01*
X030527Y039095D01*
X030519Y039101D01*
X030432Y039148D01*
X030415Y039158D01*
X030404Y039163D01*
X030348Y039193D01*
X030338Y039196D01*
X030329Y039200D01*
X030269Y039219D01*
X030257Y039223D01*
X030238Y039228D01*
X030219Y039234D01*
X030228Y039294D01*
X030474Y039294D01*
X030513Y039301D01*
X030547Y039324D01*
X030569Y039357D01*
X030576Y039396D01*
X030576Y039700D01*
X030238Y039700D01*
X029900Y039700D01*
X029900Y039396D01*
X029908Y039357D01*
X029920Y039339D01*
X029917Y039320D01*
X029903Y039290D01*
X029894Y039278D01*
X029718Y039260D01*
X029709Y039258D01*
X029699Y039257D01*
X029605Y039228D01*
X029585Y039223D01*
X029574Y039219D01*
X029513Y039200D01*
X029504Y039196D01*
X029495Y039193D01*
X029439Y039163D01*
X029427Y039158D01*
X029410Y039148D01*
X029324Y039101D01*
X029316Y039095D01*
X029307Y039090D01*
X029157Y038967D01*
X029151Y038959D01*
X029143Y038953D01*
X029020Y038803D01*
X029015Y038794D01*
X029009Y038787D01*
X028963Y038700D01*
X028952Y038683D01*
X028948Y038672D01*
X028918Y038616D01*
X028915Y038606D01*
X028910Y038597D01*
X028892Y038536D01*
X028887Y038525D01*
X028882Y038505D01*
X028854Y038412D01*
X028853Y038402D01*
X028850Y038392D01*
X028831Y038199D01*
X028832Y038189D01*
X028831Y038179D01*
X028850Y037986D01*
X028853Y037976D01*
X028854Y037966D01*
X028882Y037872D01*
X028887Y037853D01*
X028892Y037842D01*
X028910Y037781D01*
X028915Y037772D01*
X028918Y037762D01*
X028948Y037706D01*
X028952Y037695D01*
X028963Y037678D01*
X029009Y037591D01*
X029015Y037584D01*
X029020Y037575D01*
X029143Y037425D01*
X029151Y037419D01*
X029157Y037411D01*
X029307Y037288D01*
X029316Y037283D01*
X029324Y037277D01*
X029410Y037230D01*
X029427Y037220D01*
X029439Y037215D01*
X029461Y037203D01*
X029446Y037143D01*
X029203Y037143D01*
X029126Y037133D01*
X029053Y037103D01*
X028991Y037055D01*
X028944Y036993D01*
X028932Y036966D01*
X028868Y036966D01*
X028856Y036993D01*
X028809Y037055D01*
X028747Y037103D01*
X028674Y037133D01*
X028622Y037140D01*
X028622Y037350D01*
X028622Y037350D01*
X028605Y037435D01*
X028575Y037481D01*
X028600Y037500D01*
X028656Y037573D01*
X028691Y037659D01*
X028703Y037750D01*
X028691Y037841D01*
X028656Y037927D01*
X028600Y038000D01*
X028527Y038056D01*
X028441Y038091D01*
X028350Y038103D01*
X028259Y038091D01*
X028173Y038056D01*
X028100Y038000D01*
X028044Y037927D01*
X028009Y037841D01*
X028004Y037800D01*
X027426Y037800D01*
X027408Y037860D01*
X027457Y037893D01*
X027487Y037923D01*
X027500Y037923D01*
X027512Y037925D01*
X027697Y037925D01*
X027736Y037933D01*
X027769Y037955D01*
X027791Y037988D01*
X027799Y038027D01*
X027799Y038263D01*
X027791Y038302D01*
X027769Y038335D01*
X027752Y038347D01*
X027751Y038349D01*
X027749Y038404D01*
X027752Y038414D01*
X027765Y038422D01*
X027787Y038455D01*
X027794Y038494D01*
X027794Y039006D01*
X027787Y039045D01*
X027765Y039078D01*
X027741Y039094D01*
X027741Y039133D01*
X027748Y039156D01*
X027762Y039159D01*
X027795Y039181D01*
X027817Y039214D01*
X027825Y039253D01*
X027825Y039647D01*
X027817Y039686D01*
X027795Y039719D01*
X027793Y039743D01*
X027832Y039782D01*
X027855Y039786D01*
X027864Y039790D01*
X027874Y039792D01*
X027874Y039792D01*
X027885Y039795D01*
X027894Y039801D01*
X027895Y039801D01*
X027904Y039807D01*
X027913Y039811D01*
X027933Y039824D01*
X027940Y039831D01*
X027948Y039836D01*
X027948Y039837D01*
X027957Y039843D01*
X028307Y040193D01*
X028307Y040193D01*
X028313Y040202D01*
X028314Y040202D01*
X028319Y040210D01*
X028326Y040217D01*
X028339Y040237D01*
X028343Y040246D01*
X028349Y040255D01*
X028349Y040256D01*
X028355Y040265D01*
X028358Y040276D01*
X028358Y040276D01*
X028360Y040286D01*
X028364Y040295D01*
X028368Y040318D01*
X028368Y040328D01*
X028370Y040338D01*
X028370Y040339D01*
X028372Y040350D01*
X028372Y040350D01*
X028372Y041250D01*
X031098Y041250D01*
X031098Y041156D01*
X031098Y041156D02*
G37*
G36*
X025033Y037995D02*
X025019Y037925D01*
X024973Y037906D01*
X024900Y037850D01*
X024844Y037777D01*
X024809Y037691D01*
X024804Y037650D01*
X025496Y037650D01*
X025491Y037691D01*
X025459Y037768D01*
X025483Y037828D01*
X025654Y037828D01*
X025664Y037821D01*
X025699Y037768D01*
X025696Y037755D01*
X025696Y037400D01*
X025704Y037361D01*
X025726Y037328D01*
X025709Y037267D01*
X025585Y037143D01*
X025203Y037143D01*
X025126Y037133D01*
X025053Y037103D01*
X024991Y037055D01*
X024944Y036993D01*
X024932Y036966D01*
X024868Y036966D01*
X024856Y036993D01*
X024809Y037055D01*
X024747Y037103D01*
X024674Y037133D01*
X024597Y037143D01*
X024203Y037143D01*
X024145Y037135D01*
X023865Y037415D01*
X023812Y037451D01*
X023750Y037463D01*
X021413Y037463D01*
X021315Y037561D01*
X021315Y037652D01*
X021375Y037681D01*
X021423Y037644D01*
X021509Y037609D01*
X021550Y037604D01*
X021550Y037950D01*
X021650Y037950D01*
X021650Y037604D01*
X021691Y037609D01*
X021777Y037644D01*
X021850Y037700D01*
X021906Y037773D01*
X021941Y037859D01*
X021950Y037929D01*
X021976Y037946D01*
X021998Y037954D01*
X022012Y037956D01*
X022066Y037919D01*
X022144Y037904D01*
X022210Y037904D01*
X022224Y037836D01*
X022272Y037764D01*
X022407Y037629D01*
X022407Y037629D01*
X022479Y037581D01*
X022564Y037564D01*
X022564Y037564D01*
X023436Y037564D01*
X023436Y037564D01*
X023521Y037581D01*
X023593Y037629D01*
X023728Y037764D01*
X023728Y037764D01*
X023776Y037836D01*
X023793Y037921D01*
X023793Y037921D01*
X023793Y037955D01*
X023798Y037958D01*
X023830Y038006D01*
X023841Y038062D01*
X023841Y038151D01*
X023830Y038207D01*
X023823Y038218D01*
X023855Y038278D01*
X024196Y038278D01*
X024196Y038278D01*
X024281Y038295D01*
X024353Y038343D01*
X024484Y038474D01*
X024555Y038474D01*
X025033Y037995D01*
X025033Y037995D02*
G37*
G36*
X021605Y038359D02*
X021579Y038300D01*
X021509Y038291D01*
X021423Y038256D01*
X021375Y038219D01*
X021315Y038248D01*
X021315Y038347D01*
X021308Y038386D01*
X021290Y038412D01*
X021299Y038443D01*
X021315Y038472D01*
X021418Y038472D01*
X021457Y038479D01*
X021474Y038490D01*
X021605Y038359D01*
X021605Y038359D02*
G37*
G36*
X032550Y040200D02*
X031800Y040200D01*
X031800Y028900D01*
X030100Y028900D01*
X030100Y030000D01*
X031200Y030000D01*
X031200Y044750D01*
X030800Y045150D01*
X030800Y046450D01*
X032550Y046450D01*
X032550Y040200D01*
X032550Y040200D02*
G37*
G36*
X016852Y038540D02*
X016762Y038466D01*
X016676Y038361D01*
X016612Y038241D01*
X016573Y038111D01*
X016559Y037976D01*
X016573Y037840D01*
X016612Y037710D01*
X016676Y037590D01*
X016762Y037485D01*
X016868Y037399D01*
X016902Y037380D01*
X016902Y030032D01*
X016842Y030012D01*
X016809Y030055D01*
X016747Y030103D01*
X016674Y030133D01*
X016597Y030143D01*
X016203Y030143D01*
X016126Y030133D01*
X016053Y030103D01*
X015991Y030055D01*
X015944Y029993D01*
X015914Y029921D01*
X015904Y029844D01*
X015904Y029056D01*
X015914Y028979D01*
X015944Y028907D01*
X015946Y028904D01*
X015919Y028850D01*
X015500Y028850D01*
X015500Y037500D01*
X016600Y038600D01*
X016833Y038600D01*
X016852Y038540D01*
X016852Y038540D02*
G37*
%LPC*%
G36*
X019050Y038446D02*
X019009Y038441D01*
X018923Y038406D01*
X018850Y038350D01*
X018794Y038277D01*
X018759Y038191D01*
X018754Y038150D01*
X019050Y038150D01*
X019050Y038446D01*
X019050Y038446D02*
G37*
G36*
X019150Y038446D02*
X019150Y038150D01*
X019446Y038150D01*
X019441Y038191D01*
X019406Y038277D01*
X019350Y038350D01*
X019277Y038406D01*
X019191Y038441D01*
X019150Y038446D01*
X019150Y038446D02*
G37*
G36*
X021946Y039800D02*
X021650Y039800D01*
X021650Y039504D01*
X021691Y039509D01*
X021777Y039544D01*
X021850Y039600D01*
X021906Y039673D01*
X021941Y039759D01*
X021946Y039800D01*
X021946Y039800D02*
G37*
G36*
X021650Y040196D02*
X021650Y039900D01*
X021946Y039900D01*
X021941Y039941D01*
X021906Y040027D01*
X021850Y040100D01*
X021777Y040156D01*
X021691Y040191D01*
X021650Y040196D01*
X021650Y040196D02*
G37*
G36*
X021550Y040196D02*
X021509Y040191D01*
X021423Y040156D01*
X021350Y040100D01*
X021294Y040027D01*
X021259Y039941D01*
X021254Y039900D01*
X021550Y039900D01*
X021550Y040196D01*
X021550Y040196D02*
G37*
G36*
X021550Y039800D02*
X021254Y039800D01*
X021259Y039759D01*
X021294Y039673D01*
X021350Y039600D01*
X021423Y039544D01*
X021509Y039509D01*
X021550Y039504D01*
X021550Y039800D01*
X021550Y039800D02*
G37*
G36*
X021432Y040700D02*
X021383Y040700D01*
X021383Y040550D01*
X021533Y040550D01*
X021533Y040598D01*
X021526Y040637D01*
X021504Y040671D01*
X021471Y040693D01*
X021432Y040700D01*
X021432Y040700D02*
G37*
G36*
X021283Y040700D02*
X021235Y040700D01*
X021196Y040693D01*
X021163Y040671D01*
X021140Y040637D01*
X021133Y040598D01*
X021133Y040550D01*
X021283Y040550D01*
X021283Y040700D01*
X021283Y040700D02*
G37*
G36*
X021533Y040450D02*
X021383Y040450D01*
X021383Y040300D01*
X021432Y040300D01*
X021471Y040307D01*
X021504Y040329D01*
X021526Y040363D01*
X021533Y040402D01*
X021533Y040450D01*
X021533Y040450D02*
G37*
G36*
X021283Y040450D02*
X021133Y040450D01*
X021133Y040402D01*
X021140Y040363D01*
X021163Y040329D01*
X021196Y040307D01*
X021235Y040300D01*
X021283Y040300D01*
X021283Y040450D01*
X021283Y040450D02*
G37*
G36*
X025451Y039208D02*
X025304Y039208D01*
X025304Y038900D01*
X025553Y038900D01*
X025553Y039106D01*
X025545Y039145D01*
X025523Y039178D01*
X025490Y039200D01*
X025451Y039208D01*
X025451Y039208D02*
G37*
G36*
X020350Y033550D02*
X020054Y033550D01*
X020059Y033509D01*
X020094Y033423D01*
X020150Y033350D01*
X020223Y033294D01*
X020309Y033259D01*
X020350Y033254D01*
X020350Y033550D01*
X020350Y033550D02*
G37*
G36*
X022850Y033250D02*
X022554Y033250D01*
X022559Y033209D01*
X022594Y033123D01*
X022650Y033050D01*
X022723Y032994D01*
X022809Y032959D01*
X022850Y032954D01*
X022850Y033250D01*
X022850Y033250D02*
G37*
G36*
X023246Y033250D02*
X022950Y033250D01*
X022950Y032954D01*
X022991Y032959D01*
X023077Y032994D01*
X023150Y033050D01*
X023206Y033123D01*
X023241Y033209D01*
X023246Y033250D01*
X023246Y033250D02*
G37*
G36*
X025850Y033446D02*
X025850Y033150D01*
X026146Y033150D01*
X026141Y033191D01*
X026106Y033277D01*
X026050Y033350D01*
X025977Y033406D01*
X025891Y033441D01*
X025850Y033446D01*
X025850Y033446D02*
G37*
G36*
X025750Y033446D02*
X025709Y033441D01*
X025623Y033406D01*
X025550Y033350D01*
X025494Y033277D01*
X025459Y033191D01*
X025454Y033150D01*
X025750Y033150D01*
X025750Y033446D01*
X025750Y033446D02*
G37*
G36*
X020746Y033550D02*
X020450Y033550D01*
X020450Y033254D01*
X020491Y033259D01*
X020577Y033294D01*
X020650Y033350D01*
X020706Y033423D01*
X020741Y033509D01*
X020746Y033550D01*
X020746Y033550D02*
G37*
G36*
X027246Y034900D02*
X026950Y034900D01*
X026950Y034604D01*
X026991Y034609D01*
X027077Y034644D01*
X027150Y034700D01*
X027206Y034773D01*
X027241Y034859D01*
X027246Y034900D01*
X027246Y034900D02*
G37*
G36*
X026850Y034900D02*
X026554Y034900D01*
X026559Y034859D01*
X026594Y034773D01*
X026650Y034700D01*
X026723Y034644D01*
X026809Y034609D01*
X026850Y034604D01*
X026850Y034900D01*
X026850Y034900D02*
G37*
G36*
X022950Y033646D02*
X022950Y033350D01*
X023246Y033350D01*
X023241Y033391D01*
X023206Y033477D01*
X023150Y033550D01*
X023077Y033606D01*
X022991Y033641D01*
X022950Y033646D01*
X022950Y033646D02*
G37*
G36*
X022850Y033646D02*
X022809Y033641D01*
X022723Y033606D01*
X022650Y033550D01*
X022594Y033477D01*
X022559Y033391D01*
X022554Y033350D01*
X022850Y033350D01*
X022850Y033646D01*
X022850Y033646D02*
G37*
G36*
X020450Y033946D02*
X020450Y033650D01*
X020746Y033650D01*
X020741Y033691D01*
X020706Y033777D01*
X020650Y033850D01*
X020577Y033906D01*
X020491Y033941D01*
X020450Y033946D01*
X020450Y033946D02*
G37*
G36*
X020350Y033946D02*
X020309Y033941D01*
X020223Y033906D01*
X020150Y033850D01*
X020094Y033777D01*
X020059Y033691D01*
X020054Y033650D01*
X020350Y033650D01*
X020350Y033946D01*
X020350Y033946D02*
G37*
G36*
X027050Y031496D02*
X027009Y031491D01*
X026923Y031456D01*
X026850Y031400D01*
X026794Y031327D01*
X026759Y031241D01*
X026754Y031200D01*
X027050Y031200D01*
X027050Y031496D01*
X027050Y031496D02*
G37*
G36*
X021746Y031550D02*
X021450Y031550D01*
X021450Y031254D01*
X021491Y031259D01*
X021577Y031294D01*
X021650Y031350D01*
X021706Y031423D01*
X021741Y031509D01*
X021746Y031550D01*
X021746Y031550D02*
G37*
G36*
X021350Y031550D02*
X021054Y031550D01*
X021059Y031509D01*
X021094Y031423D01*
X021150Y031350D01*
X021223Y031294D01*
X021309Y031259D01*
X021350Y031254D01*
X021350Y031550D01*
X021350Y031550D02*
G37*
G36*
X027150Y031496D02*
X027150Y031200D01*
X027446Y031200D01*
X027441Y031241D01*
X027406Y031327D01*
X027350Y031400D01*
X027277Y031456D01*
X027191Y031491D01*
X027150Y031496D01*
X027150Y031496D02*
G37*
G36*
X027050Y031100D02*
X026754Y031100D01*
X026759Y031059D01*
X026794Y030973D01*
X026850Y030900D01*
X026923Y030844D01*
X027009Y030809D01*
X027050Y030804D01*
X027050Y031100D01*
X027050Y031100D02*
G37*
G36*
X027446Y031100D02*
X027150Y031100D01*
X027150Y030804D01*
X027191Y030809D01*
X027277Y030844D01*
X027350Y030900D01*
X027406Y030973D01*
X027441Y031059D01*
X027446Y031100D01*
X027446Y031100D02*
G37*
G36*
X025750Y033050D02*
X025454Y033050D01*
X025459Y033009D01*
X025494Y032923D01*
X025550Y032850D01*
X025623Y032794D01*
X025709Y032759D01*
X025750Y032754D01*
X025750Y033050D01*
X025750Y033050D02*
G37*
G36*
X018900Y031996D02*
X018900Y031700D01*
X019196Y031700D01*
X019191Y031741D01*
X019156Y031827D01*
X019100Y031900D01*
X019027Y031956D01*
X018941Y031991D01*
X018900Y031996D01*
X018900Y031996D02*
G37*
G36*
X018800Y031996D02*
X018759Y031991D01*
X018673Y031956D01*
X018600Y031900D01*
X018544Y031827D01*
X018509Y031741D01*
X018504Y031700D01*
X018800Y031700D01*
X018800Y031996D01*
X018800Y031996D02*
G37*
G36*
X026146Y033050D02*
X025850Y033050D01*
X025850Y032754D01*
X025891Y032759D01*
X025977Y032794D01*
X026050Y032850D01*
X026106Y032923D01*
X026141Y033009D01*
X026146Y033050D01*
X026146Y033050D02*
G37*
G36*
X019196Y031600D02*
X018900Y031600D01*
X018900Y031304D01*
X018941Y031309D01*
X019027Y031344D01*
X019100Y031400D01*
X019156Y031473D01*
X019191Y031559D01*
X019196Y031600D01*
X019196Y031600D02*
G37*
G36*
X018800Y031600D02*
X018504Y031600D01*
X018509Y031559D01*
X018544Y031473D01*
X018600Y031400D01*
X018673Y031344D01*
X018759Y031309D01*
X018800Y031304D01*
X018800Y031600D01*
X018800Y031600D02*
G37*
G36*
X021450Y031946D02*
X021450Y031650D01*
X021746Y031650D01*
X021741Y031691D01*
X021706Y031777D01*
X021650Y031850D01*
X021577Y031906D01*
X021491Y031941D01*
X021450Y031946D01*
X021450Y031946D02*
G37*
G36*
X021350Y031946D02*
X021309Y031941D01*
X021223Y031906D01*
X021150Y031850D01*
X021094Y031777D01*
X021059Y031691D01*
X021054Y031650D01*
X021350Y031650D01*
X021350Y031946D01*
X021350Y031946D02*
G37*
G36*
X020350Y036400D02*
X019904Y036400D01*
X019904Y036056D01*
X019914Y035979D01*
X019944Y035907D01*
X019991Y035845D01*
X020053Y035797D01*
X020126Y035767D01*
X020203Y035757D01*
X020350Y035757D01*
X020350Y036400D01*
X020350Y036400D02*
G37*
G36*
X022950Y035496D02*
X022950Y035200D01*
X023246Y035200D01*
X023241Y035241D01*
X023206Y035327D01*
X023150Y035400D01*
X023077Y035456D01*
X022991Y035491D01*
X022950Y035496D01*
X022950Y035496D02*
G37*
G36*
X020350Y037143D02*
X020203Y037143D01*
X020126Y037133D01*
X020053Y037103D01*
X019991Y037055D01*
X019944Y036993D01*
X019914Y036921D01*
X019904Y036844D01*
X019904Y036500D01*
X020350Y036500D01*
X020350Y037143D01*
X020350Y037143D02*
G37*
G36*
X022850Y035496D02*
X022809Y035491D01*
X022723Y035456D01*
X022650Y035400D01*
X022594Y035327D01*
X022559Y035241D01*
X022554Y035200D01*
X022850Y035200D01*
X022850Y035496D01*
X022850Y035496D02*
G37*
G36*
X022850Y035100D02*
X022554Y035100D01*
X022559Y035059D01*
X022594Y034973D01*
X022650Y034900D01*
X022723Y034844D01*
X022809Y034809D01*
X022850Y034804D01*
X022850Y035100D01*
X022850Y035100D02*
G37*
G36*
X023246Y035100D02*
X022950Y035100D01*
X022950Y034804D01*
X022991Y034809D01*
X023077Y034844D01*
X023150Y034900D01*
X023206Y034973D01*
X023241Y035059D01*
X023246Y035100D01*
X023246Y035100D02*
G37*
G36*
X026950Y035296D02*
X026950Y035000D01*
X027246Y035000D01*
X027241Y035041D01*
X027206Y035127D01*
X027150Y035200D01*
X027077Y035256D01*
X026991Y035291D01*
X026950Y035296D01*
X026950Y035296D02*
G37*
G36*
X026850Y035296D02*
X026809Y035291D01*
X026723Y035256D01*
X026650Y035200D01*
X026594Y035127D01*
X026559Y035041D01*
X026554Y035000D01*
X026850Y035000D01*
X026850Y035296D01*
X026850Y035296D02*
G37*
G36*
X018800Y036850D02*
X018504Y036850D01*
X018509Y036809D01*
X018544Y036723D01*
X018600Y036650D01*
X018673Y036594D01*
X018759Y036559D01*
X018800Y036554D01*
X018800Y036850D01*
X018800Y036850D02*
G37*
G36*
X019196Y036850D02*
X018900Y036850D01*
X018900Y036554D01*
X018941Y036559D01*
X019027Y036594D01*
X019100Y036650D01*
X019156Y036723D01*
X019191Y036809D01*
X019196Y036850D01*
X019196Y036850D02*
G37*
G36*
X018900Y037246D02*
X018900Y036950D01*
X019196Y036950D01*
X019191Y036991D01*
X019156Y037077D01*
X019100Y037150D01*
X019027Y037206D01*
X018941Y037241D01*
X018900Y037246D01*
X018900Y037246D02*
G37*
G36*
X018800Y037246D02*
X018759Y037241D01*
X018673Y037206D01*
X018600Y037150D01*
X018544Y037077D01*
X018509Y036991D01*
X018504Y036950D01*
X018800Y036950D01*
X018800Y037246D01*
X018800Y037246D02*
G37*
G36*
X029700Y033446D02*
X029659Y033441D01*
X029573Y033406D01*
X029500Y033350D01*
X029444Y033277D01*
X029409Y033191D01*
X029404Y033150D01*
X029700Y033150D01*
X029700Y033446D01*
X029700Y033446D02*
G37*
G36*
X029800Y033446D02*
X029800Y033150D01*
X030096Y033150D01*
X030091Y033191D01*
X030056Y033277D01*
X030000Y033350D01*
X029927Y033406D01*
X029841Y033441D01*
X029800Y033446D01*
X029800Y033446D02*
G37*
G36*
X030096Y034700D02*
X029800Y034700D01*
X029800Y034404D01*
X029841Y034409D01*
X029927Y034444D01*
X030000Y034500D01*
X030056Y034573D01*
X030091Y034659D01*
X030096Y034700D01*
X030096Y034700D02*
G37*
G36*
X029700Y034700D02*
X029404Y034700D01*
X029409Y034659D01*
X029444Y034573D01*
X029500Y034500D01*
X029573Y034444D01*
X029659Y034409D01*
X029700Y034404D01*
X029700Y034700D01*
X029700Y034700D02*
G37*
G36*
X029700Y035096D02*
X029659Y035091D01*
X029573Y035056D01*
X029500Y035000D01*
X029444Y034927D01*
X029409Y034841D01*
X029404Y034800D01*
X029700Y034800D01*
X029700Y035096D01*
X029700Y035096D02*
G37*
G36*
X030096Y031300D02*
X029800Y031300D01*
X029800Y031004D01*
X029841Y031009D01*
X029927Y031044D01*
X030000Y031100D01*
X030056Y031173D01*
X030091Y031259D01*
X030096Y031300D01*
X030096Y031300D02*
G37*
G36*
X029700Y031300D02*
X029404Y031300D01*
X029409Y031259D01*
X029444Y031173D01*
X029500Y031100D01*
X029573Y031044D01*
X029659Y031009D01*
X029700Y031004D01*
X029700Y031300D01*
X029700Y031300D02*
G37*
G36*
X030096Y033050D02*
X029800Y033050D01*
X029800Y032754D01*
X029841Y032759D01*
X029927Y032794D01*
X030000Y032850D01*
X030056Y032923D01*
X030091Y033009D01*
X030096Y033050D01*
X030096Y033050D02*
G37*
G36*
X029700Y033050D02*
X029404Y033050D01*
X029409Y033009D01*
X029444Y032923D01*
X029500Y032850D01*
X029573Y032794D01*
X029659Y032759D01*
X029700Y032754D01*
X029700Y033050D01*
X029700Y033050D02*
G37*
G36*
X029700Y031696D02*
X029659Y031691D01*
X029573Y031656D01*
X029500Y031600D01*
X029444Y031527D01*
X029409Y031441D01*
X029404Y031400D01*
X029700Y031400D01*
X029700Y031696D01*
X029700Y031696D02*
G37*
G36*
X029800Y031696D02*
X029800Y031400D01*
X030096Y031400D01*
X030091Y031441D01*
X030056Y031527D01*
X030000Y031600D01*
X029927Y031656D01*
X029841Y031691D01*
X029800Y031696D01*
X029800Y031696D02*
G37*
G36*
X028800Y040146D02*
X028759Y040141D01*
X028673Y040106D01*
X028600Y040050D01*
X028544Y039977D01*
X028509Y039891D01*
X028504Y039850D01*
X028800Y039850D01*
X028800Y040146D01*
X028800Y040146D02*
G37*
G36*
X028900Y040146D02*
X028900Y039850D01*
X029196Y039850D01*
X029191Y039891D01*
X029156Y039977D01*
X029100Y040050D01*
X029027Y040106D01*
X028941Y040141D01*
X028900Y040146D01*
X028900Y040146D02*
G37*
G36*
X028800Y039750D02*
X028504Y039750D01*
X028509Y039709D01*
X028544Y039623D01*
X028600Y039550D01*
X028673Y039494D01*
X028759Y039459D01*
X028800Y039454D01*
X028800Y039750D01*
X028800Y039750D02*
G37*
G36*
X029196Y039750D02*
X028900Y039750D01*
X028900Y039454D01*
X028941Y039459D01*
X029027Y039494D01*
X029100Y039550D01*
X029156Y039623D01*
X029191Y039709D01*
X029196Y039750D01*
X029196Y039750D02*
G37*
G36*
X028313Y039749D02*
X028245Y039749D01*
X028245Y039500D01*
X028415Y039500D01*
X028415Y039647D01*
X028408Y039686D01*
X028385Y039719D01*
X028352Y039741D01*
X028313Y039749D01*
X028313Y039749D02*
G37*
G36*
X028145Y039749D02*
X028077Y039749D01*
X028038Y039741D01*
X028005Y039719D01*
X027983Y039686D01*
X027975Y039647D01*
X027975Y039500D01*
X028145Y039500D01*
X028145Y039749D01*
X028145Y039749D02*
G37*
G36*
X029450Y040250D02*
X029154Y040250D01*
X029159Y040209D01*
X029194Y040123D01*
X029250Y040050D01*
X029323Y039994D01*
X029409Y039959D01*
X029450Y039954D01*
X029450Y040250D01*
X029450Y040250D02*
G37*
G36*
X028800Y041046D02*
X028759Y041041D01*
X028673Y041006D01*
X028600Y040950D01*
X028544Y040877D01*
X028509Y040791D01*
X028504Y040750D01*
X028800Y040750D01*
X028800Y041046D01*
X028800Y041046D02*
G37*
G36*
X028900Y041046D02*
X028900Y040750D01*
X029196Y040750D01*
X029191Y040791D01*
X029156Y040877D01*
X029100Y040950D01*
X029027Y041006D01*
X028941Y041041D01*
X028900Y041046D01*
X028900Y041046D02*
G37*
G36*
X030474Y041156D02*
X030288Y041156D01*
X030288Y040750D01*
X030576Y040750D01*
X030576Y041054D01*
X030569Y041093D01*
X030547Y041126D01*
X030513Y041149D01*
X030474Y041156D01*
X030474Y041156D02*
G37*
G36*
X030188Y041156D02*
X030002Y041156D01*
X029963Y041149D01*
X029930Y041126D01*
X029908Y041093D01*
X029900Y041054D01*
X029900Y040750D01*
X030188Y040750D01*
X030188Y041156D01*
X030188Y041156D02*
G37*
G36*
X029196Y040650D02*
X028900Y040650D01*
X028900Y040354D01*
X028941Y040359D01*
X029027Y040394D01*
X029100Y040450D01*
X029146Y040511D01*
X029194Y040477D01*
X029159Y040391D01*
X029154Y040350D01*
X029450Y040350D01*
X029450Y040646D01*
X029409Y040641D01*
X029323Y040606D01*
X029250Y040550D01*
X029204Y040489D01*
X029156Y040523D01*
X029191Y040609D01*
X029196Y040650D01*
X029196Y040650D02*
G37*
G36*
X030238Y040700D02*
X030238Y040700D01*
X030238Y040650D01*
X029900Y040650D01*
X029900Y040400D01*
X029841Y040391D01*
X029806Y040477D01*
X029750Y040550D01*
X029677Y040606D01*
X029591Y040641D01*
X029550Y040646D01*
X029550Y040300D01*
X029550Y039954D01*
X029591Y039959D01*
X029677Y039994D01*
X029750Y040050D01*
X029806Y040123D01*
X029841Y040209D01*
X029852Y040291D01*
X029889Y040301D01*
X029911Y040302D01*
X029930Y040274D01*
X029953Y040258D01*
X029959Y040225D01*
X029953Y040192D01*
X029930Y040176D01*
X029908Y040143D01*
X029900Y040104D01*
X029900Y039800D01*
X030238Y039800D01*
X030576Y039800D01*
X030576Y040104D01*
X030569Y040143D01*
X030547Y040176D01*
X030523Y040192D01*
X030518Y040225D01*
X030523Y040258D01*
X030547Y040274D01*
X030569Y040307D01*
X030576Y040346D01*
X030576Y040650D01*
X030238Y040650D01*
X030238Y040700D01*
X030238Y040700D02*
G37*
G36*
X028800Y040650D02*
X028504Y040650D01*
X028509Y040609D01*
X028544Y040523D01*
X028600Y040450D01*
X028673Y040394D01*
X028759Y040359D01*
X028800Y040354D01*
X028800Y040650D01*
X028800Y040650D02*
G37*
G36*
X028415Y039400D02*
X028195Y039400D01*
X027975Y039400D01*
X027975Y039253D01*
X027983Y039214D01*
X028005Y039181D01*
X028025Y039168D01*
X028011Y039108D01*
X028007Y039108D01*
X027968Y039100D01*
X027935Y039078D01*
X027913Y039045D01*
X027906Y039006D01*
X027906Y038800D01*
X028204Y038800D01*
X028503Y038800D01*
X028503Y039006D01*
X028495Y039045D01*
X028473Y039078D01*
X028440Y039100D01*
X028401Y039108D01*
X028380Y039108D01*
X028366Y039168D01*
X028385Y039181D01*
X028408Y039214D01*
X028415Y039253D01*
X028415Y039400D01*
X028415Y039400D02*
G37*
G36*
X029800Y035096D02*
X029800Y034800D01*
X030096Y034800D01*
X030091Y034841D01*
X030056Y034927D01*
X030000Y035000D01*
X029927Y035056D01*
X029841Y035091D01*
X029800Y035096D01*
X029800Y035096D02*
G37*
G36*
X028503Y038700D02*
X028254Y038700D01*
X028254Y038392D01*
X028401Y038392D01*
X028440Y038400D01*
X028473Y038422D01*
X028495Y038455D01*
X028503Y038494D01*
X028503Y038700D01*
X028503Y038700D02*
G37*
G36*
X028154Y038700D02*
X027906Y038700D01*
X027906Y038494D01*
X027913Y038455D01*
X027935Y038422D01*
X027968Y038400D01*
X028007Y038392D01*
X028154Y038392D01*
X028154Y038700D01*
X028154Y038700D02*
G37*
G36*
X025496Y037550D02*
X025200Y037550D01*
X025200Y037254D01*
X025241Y037259D01*
X025327Y037294D01*
X025400Y037350D01*
X025456Y037423D01*
X025491Y037509D01*
X025496Y037550D01*
X025496Y037550D02*
G37*
G36*
X025100Y037550D02*
X024804Y037550D01*
X024809Y037509D01*
X024844Y037423D01*
X024900Y037350D01*
X024973Y037294D01*
X025059Y037259D01*
X025100Y037254D01*
X025100Y037550D01*
X025100Y037550D02*
G37*
G36*
X016250Y034046D02*
X016250Y033750D01*
X016546Y033750D01*
X016541Y033791D01*
X016506Y033877D01*
X016450Y033950D01*
X016377Y034006D01*
X016291Y034041D01*
X016250Y034046D01*
X016250Y034046D02*
G37*
G36*
X016150Y034046D02*
X016109Y034041D01*
X016023Y034006D01*
X015950Y033950D01*
X015894Y033877D01*
X015859Y033791D01*
X015854Y033750D01*
X016150Y033750D01*
X016150Y034046D01*
X016150Y034046D02*
G37*
G36*
X016150Y033650D02*
X015854Y033650D01*
X015859Y033609D01*
X015894Y033523D01*
X015950Y033450D01*
X016023Y033394D01*
X016109Y033359D01*
X016150Y033354D01*
X016150Y033650D01*
X016150Y033650D02*
G37*
G36*
X016546Y033650D02*
X016250Y033650D01*
X016250Y033354D01*
X016291Y033359D01*
X016377Y033394D01*
X016450Y033450D01*
X016506Y033523D01*
X016541Y033609D01*
X016546Y033650D01*
X016546Y033650D02*
G37*
G36*
X016546Y030850D02*
X016250Y030850D01*
X016250Y030554D01*
X016291Y030559D01*
X016377Y030594D01*
X016450Y030650D01*
X016506Y030723D01*
X016541Y030809D01*
X016546Y030850D01*
X016546Y030850D02*
G37*
G36*
X016150Y030850D02*
X015854Y030850D01*
X015859Y030809D01*
X015894Y030723D01*
X015950Y030650D01*
X016023Y030594D01*
X016109Y030559D01*
X016150Y030554D01*
X016150Y030850D01*
X016150Y030850D02*
G37*
G36*
X016250Y031246D02*
X016250Y030950D01*
X016546Y030950D01*
X016541Y030991D01*
X016506Y031077D01*
X016450Y031150D01*
X016377Y031206D01*
X016291Y031241D01*
X016250Y031246D01*
X016250Y031246D02*
G37*
G36*
X016150Y031246D02*
X016109Y031241D01*
X016023Y031206D01*
X015950Y031150D01*
X015894Y031077D01*
X015859Y030991D01*
X015854Y030950D01*
X016150Y030950D01*
X016150Y031246D01*
X016150Y031246D02*
G37*
G36*
X016150Y036450D02*
X015854Y036450D01*
X015859Y036409D01*
X015894Y036323D01*
X015950Y036250D01*
X016023Y036194D01*
X016109Y036159D01*
X016150Y036154D01*
X016150Y036450D01*
X016150Y036450D02*
G37*
G36*
X016546Y036450D02*
X016250Y036450D01*
X016250Y036154D01*
X016291Y036159D01*
X016377Y036194D01*
X016450Y036250D01*
X016506Y036323D01*
X016541Y036409D01*
X016546Y036450D01*
X016546Y036450D02*
G37*
G36*
X016150Y036846D02*
X016109Y036841D01*
X016023Y036806D01*
X015950Y036750D01*
X015894Y036677D01*
X015859Y036591D01*
X015854Y036550D01*
X016150Y036550D01*
X016150Y036846D01*
X016150Y036846D02*
G37*
G36*
X016250Y036846D02*
X016250Y036550D01*
X016546Y036550D01*
X016541Y036591D01*
X016506Y036677D01*
X016450Y036750D01*
X016377Y036806D01*
X016291Y036841D01*
X016250Y036846D01*
X016250Y036846D02*
G37*
%LPD*%
D10*
X022429Y039471D02*
G03*
X022450Y039521I-000050J000050D01*
G01*
X022429Y039350D02*
X022429Y039471D01*
X022429Y039500D01*
X023400Y029400D02*
X023400Y029450D01*
X023400Y030500D01*
X023350Y029350D02*
X023400Y029400D01*
X025926Y037226D02*
X025926Y037578D01*
X025400Y036700D02*
X025926Y037226D01*
X025400Y036450D02*
X025400Y036700D01*
X026591Y039500D02*
X027605Y039500D01*
X025850Y039350D02*
X025950Y039250D01*
X025950Y038546D02*
X025950Y039250D01*
X025926Y038522D02*
X025950Y038546D01*
X023550Y039350D02*
X023550Y039450D01*
X023500Y039500D02*
X023550Y039450D01*
X023550Y038915D02*
X023550Y039350D01*
X023550Y038915D02*
X023571Y038894D01*
X022429Y038894D02*
X022429Y039350D01*
X022429Y039500D02*
X022450Y039521D01*
X026300Y036550D02*
X026400Y036450D01*
X026300Y036550D02*
X026300Y037578D01*
X024400Y029450D02*
X024400Y030550D01*
D11*
X020467Y040500D02*
D03*
X021333Y040500D02*
D03*
D12*
X028195Y039450D02*
D03*
X027605Y039450D02*
D03*
X026478Y039450D02*
D03*
X025887Y039450D02*
D03*
X020505Y038150D02*
D03*
X021095Y038150D02*
D03*
X021095Y037550D02*
D03*
X020505Y037550D02*
D03*
D13*
X024546Y038850D02*
D03*
X025254Y038850D02*
D03*
X027496Y038750D02*
D03*
X028204Y038750D02*
D03*
D14*
X027500Y037555D02*
D03*
X027500Y038145D02*
D03*
D15*
X026674Y038522D02*
D03*
X026300Y038522D02*
D03*
X025926Y038522D02*
D03*
X025926Y037578D02*
D03*
X026300Y037578D02*
D03*
X026674Y037578D02*
D03*
D16*
X022429Y038894D02*
D03*
X022429Y038500D02*
D03*
X022429Y038106D02*
D03*
X023571Y038106D02*
D03*
X023571Y038500D02*
D03*
X023571Y038894D02*
D03*
D17*
X023000Y038500D02*
D03*
D18*
X032250Y040509D02*
D03*
X032250Y039800D02*
D03*
D19*
X031262Y039750D02*
D03*
X030238Y039750D02*
D03*
X031262Y040700D02*
D03*
X030238Y040700D02*
D03*
D20*
X018250Y045550D02*
D03*
X018250Y049250D02*
D03*
D21*
X020552Y038800D02*
D03*
X021300Y038800D02*
D03*
X020926Y039686D02*
D03*
D22*
X016400Y029450D02*
D03*
X017400Y029450D02*
D03*
X018400Y029450D02*
D03*
X019400Y029450D02*
D03*
X020400Y029450D02*
D03*
X021400Y029450D02*
D03*
X022400Y029450D02*
D03*
X023400Y029450D02*
D03*
X024400Y029450D02*
D03*
X025400Y029450D02*
D03*
X026400Y029450D02*
D03*
X027400Y029450D02*
D03*
X028400Y029450D02*
D03*
X029400Y029450D02*
D03*
X030400Y029450D02*
D03*
X030400Y036450D02*
D03*
X029400Y036450D02*
D03*
X028400Y036450D02*
D03*
X027400Y036450D02*
D03*
X026400Y036450D02*
D03*
X025400Y036450D02*
D03*
X024400Y036450D02*
D03*
X023400Y036450D02*
D03*
X022400Y036450D02*
D03*
X021400Y036450D02*
D03*
X020400Y036450D02*
D03*
D23*
X019950Y040135D02*
D03*
X019950Y039565D02*
D03*
D24*
X015668Y046231D02*
X015668Y047919D01*
X011731Y045950D02*
X011731Y047919D01*
X013700Y044800D02*
X013700Y047919D01*
X016012Y040338D02*
X018041Y040338D01*
X014950Y041400D02*
X016012Y040338D01*
X014950Y041400D02*
X014950Y043550D01*
X013700Y044800D02*
X014950Y043550D01*
X011731Y043418D02*
X011731Y045950D01*
X011731Y043418D02*
X012450Y042700D01*
D25*
X013669Y047969D02*
X013669Y048868D01*
X014432Y049632D02*
X017768Y049632D01*
X013669Y048868D02*
X014432Y049632D01*
X017768Y049632D02*
X018150Y049250D01*
X023642Y040650D02*
X023642Y041700D01*
X018250Y045600D02*
X019350Y045600D01*
X020500Y042700D02*
X020500Y044450D01*
X019350Y045600D02*
X020500Y044450D01*
X026626Y040650D02*
X026626Y044274D01*
X022200Y048700D02*
X026626Y044274D01*
X020500Y048700D02*
X022200Y048700D01*
X022642Y042700D02*
X023642Y041700D01*
X020500Y042700D02*
X022642Y042700D01*
D26*
X017400Y037900D02*
X017400Y037976D01*
X017400Y029450D02*
X017400Y037900D01*
X018150Y049250D02*
X018250Y049250D01*
X018250Y045550D02*
X018250Y045600D01*
D27*
X017250Y037900D02*
X017400Y037900D01*
X017700Y037600D02*
X019400Y037600D01*
X017400Y037900D02*
X017700Y037600D01*
X019400Y037600D02*
X020050Y038250D01*
X020377Y039250D02*
X021475Y039250D01*
X020050Y038250D02*
X020050Y038923D01*
X020377Y039250D01*
X022144Y038106D02*
X022429Y038106D01*
X021617Y038633D02*
X022144Y038106D01*
X021617Y038633D02*
X021617Y039109D01*
X021475Y039250D02*
X021617Y039109D01*
D28*
X020265Y039250D02*
X020377Y039250D01*
X019950Y039565D02*
X020265Y039250D01*
X020350Y040535D02*
X020350Y040600D01*
X019950Y040135D02*
X020350Y040535D01*
D29*
X020350Y040600D02*
X020926Y040024D01*
X018250Y042700D02*
X020350Y040600D01*
X020926Y039686D02*
X020926Y040024D01*
X017253Y042700D02*
X018250Y042700D01*
D30*
X026674Y037578D02*
X028172Y037578D01*
X028400Y037350D01*
X028400Y029450D02*
X028400Y036450D01*
X022564Y037786D02*
X023436Y037786D01*
X022429Y037921D02*
X022564Y037786D01*
X022429Y037921D02*
X022429Y038106D01*
X023571Y037921D02*
X023571Y038106D01*
X023436Y037786D02*
X023571Y037921D01*
X021400Y038150D02*
X021600Y037950D01*
X021095Y038150D02*
X021400Y038150D01*
X020505Y038150D02*
X020505Y038700D01*
X020505Y037550D02*
X020505Y038150D01*
X027268Y038522D02*
X027496Y038750D01*
X026674Y038522D02*
X027268Y038522D01*
X020505Y037450D02*
X020505Y037550D01*
X023571Y038106D02*
X023571Y038500D01*
X024196Y038500D01*
X024546Y038850D01*
X024546Y038797D02*
X024546Y038850D01*
X024546Y038797D02*
X025293Y038050D01*
X027300Y038050D01*
X027395Y038145D01*
X027500Y038145D01*
X027496Y038750D02*
X027500Y038746D01*
X027500Y038145D02*
X027500Y038746D01*
X028400Y036450D02*
X028400Y037350D01*
D31*
X024400Y036550D02*
X024400Y036650D01*
X023750Y037300D02*
X024400Y036650D01*
X021345Y037300D02*
X023750Y037300D01*
X021095Y037550D02*
X021345Y037300D01*
D32*
X024900Y039000D02*
X024900Y039500D01*
D33*
X032250Y039350D02*
X032250Y039800D01*
D34*
X029450Y044450D02*
D03*
D35*
X030800Y048525D02*
D03*
D36*
X031500Y045700D02*
D03*
X031500Y048700D02*
D03*
X020500Y048700D02*
D03*
X020500Y042700D02*
D03*
X017253Y042700D02*
D03*
X017253Y037976D02*
D03*
D37*
X026626Y040650D02*
D03*
X023674Y040650D02*
D03*
D38*
X018041Y040338D02*
D03*
X012450Y042700D02*
D03*
X012450Y037976D02*
D03*
D39*
X015687Y046231D02*
D03*
X015687Y048200D02*
D03*
X013719Y046231D02*
D03*
X011750Y046231D02*
D03*
X013719Y048200D02*
D03*
X011750Y048200D02*
D03*
D40*
X022047Y046063D02*
D03*
X029921Y038189D02*
D03*
D41*
X022990Y038500D02*
D03*
X019100Y038100D02*
D03*
X023400Y030500D02*
D03*
X028350Y037750D02*
D03*
X026950Y039050D02*
D03*
X032250Y039350D02*
D03*
X024900Y039500D02*
D03*
X021600Y039850D02*
D03*
X021600Y037950D02*
D03*
X025150Y037600D02*
D03*
X028850Y039800D02*
D03*
X029500Y040300D02*
D03*
X028850Y040700D02*
D03*
X025800Y033100D02*
D03*
X027100Y031150D02*
D03*
X026900Y034950D02*
D03*
X022900Y035150D02*
D03*
X022900Y033300D02*
D03*
X021400Y031600D02*
D03*
X018850Y031650D02*
D03*
X020400Y033600D02*
D03*
X018850Y036900D02*
D03*
X016200Y036500D02*
D03*
X016200Y033700D02*
D03*
X016200Y030900D02*
D03*
X029750Y031350D02*
D03*
X029750Y033100D02*
D03*
X029750Y034750D02*
D03*
X023550Y039350D02*
D03*
X022429Y039350D02*
D03*
X024400Y030550D02*
D03*
M02*
