G04 Layer_Color=8388736*
%FSAX24Y24*%
%MOIN*%
G70*
G01*
G75*
%ADD44R,0.0277X0.0277*%
%ADD45R,0.0316X0.0474*%
%ADD46R,0.0474X0.0592*%
%ADD47R,0.0474X0.0316*%
%ADD48R,0.0336X0.0434*%
G04:AMPARAMS|DCode=49|XSize=25.7mil|YSize=41.5mil|CornerRadius=8.4mil|HoleSize=0mil|Usage=FLASHONLY|Rotation=90.000|XOffset=0mil|YOffset=0mil|HoleType=Round|Shape=RoundedRectangle|*
%AMROUNDEDRECTD49*
21,1,0.0257,0.0246,0,0,90.0*
21,1,0.0089,0.0415,0,0,90.0*
1,1,0.0169,0.0123,0.0044*
1,1,0.0169,0.0123,-0.0044*
1,1,0.0169,-0.0123,-0.0044*
1,1,0.0169,-0.0123,0.0044*
%
%ADD49ROUNDEDRECTD49*%
%ADD50R,0.0631X0.1064*%
%ADD51R,0.0592X0.0474*%
%ADD52R,0.0552X0.0789*%
G04:AMPARAMS|DCode=53|XSize=136mil|YSize=143mil|CornerRadius=36mil|HoleSize=0mil|Usage=FLASHONLY|Rotation=270.000|XOffset=0mil|YOffset=0mil|HoleType=Round|Shape=RoundedRectangle|*
%AMROUNDEDRECTD53*
21,1,0.1360,0.0711,0,0,270.0*
21,1,0.0640,0.1430,0,0,270.0*
1,1,0.0720,-0.0355,-0.0320*
1,1,0.0720,-0.0355,0.0320*
1,1,0.0720,0.0355,0.0320*
1,1,0.0720,0.0355,-0.0320*
%
%ADD53ROUNDEDRECTD53*%
%ADD54R,0.0316X0.0533*%
G04:AMPARAMS|DCode=55|XSize=126.1mil|YSize=86.7mil|CornerRadius=23.7mil|HoleSize=0mil|Usage=FLASHONLY|Rotation=270.000|XOffset=0mil|YOffset=0mil|HoleType=Round|Shape=RoundedRectangle|*
%AMROUNDEDRECTD55*
21,1,0.1261,0.0394,0,0,270.0*
21,1,0.0787,0.0867,0,0,270.0*
1,1,0.0474,-0.0197,-0.0394*
1,1,0.0474,-0.0197,0.0394*
1,1,0.0474,0.0197,0.0394*
1,1,0.0474,0.0197,-0.0394*
%
%ADD55ROUNDEDRECTD55*%
%ADD56R,0.0395X0.0316*%
%ADD57C,0.1261*%
G04:AMPARAMS|DCode=58|XSize=86.7mil|YSize=86.7mil|CornerRadius=23.7mil|HoleSize=0mil|Usage=FLASHONLY|Rotation=180.000|XOffset=0mil|YOffset=0mil|HoleType=Round|Shape=RoundedRectangle|*
%AMROUNDEDRECTD58*
21,1,0.0867,0.0394,0,0,180.0*
21,1,0.0394,0.0867,0,0,180.0*
1,1,0.0474,-0.0197,0.0197*
1,1,0.0474,0.0197,0.0197*
1,1,0.0474,0.0197,-0.0197*
1,1,0.0474,-0.0197,-0.0197*
%
%ADD58ROUNDEDRECTD58*%
G04:AMPARAMS|DCode=59|XSize=126.1mil|YSize=126.1mil|CornerRadius=33.5mil|HoleSize=0mil|Usage=FLASHONLY|Rotation=90.000|XOffset=0mil|YOffset=0mil|HoleType=Round|Shape=RoundedRectangle|*
%AMROUNDEDRECTD59*
21,1,0.1261,0.0591,0,0,90.0*
21,1,0.0591,0.1261,0,0,90.0*
1,1,0.0671,0.0295,0.0295*
1,1,0.0671,0.0295,-0.0295*
1,1,0.0671,-0.0295,-0.0295*
1,1,0.0671,-0.0295,0.0295*
%
%ADD59ROUNDEDRECTD59*%
G04:AMPARAMS|DCode=60|XSize=126.1mil|YSize=126.1mil|CornerRadius=33.5mil|HoleSize=0mil|Usage=FLASHONLY|Rotation=0.000|XOffset=0mil|YOffset=0mil|HoleType=Round|Shape=RoundedRectangle|*
%AMROUNDEDRECTD60*
21,1,0.1261,0.0591,0,0,0.0*
21,1,0.0591,0.1261,0,0,0.0*
1,1,0.0671,0.0295,-0.0295*
1,1,0.0671,-0.0295,-0.0295*
1,1,0.0671,-0.0295,0.0295*
1,1,0.0671,0.0295,0.0295*
%
%ADD60ROUNDEDRECTD60*%
%ADD61C,0.2049*%
D44*
X020467Y040500D02*
D03*
X021333Y040500D02*
D03*
D45*
X028195Y039450D02*
D03*
X027605Y039450D02*
D03*
X026478Y039450D02*
D03*
X025887Y039450D02*
D03*
X020505Y038150D02*
D03*
X021095Y038150D02*
D03*
X021095Y037550D02*
D03*
X020505Y037550D02*
D03*
D46*
X024546Y038850D02*
D03*
X025254Y038850D02*
D03*
X027496Y038750D02*
D03*
X028204Y038750D02*
D03*
D47*
X027500Y037555D02*
D03*
X027500Y038145D02*
D03*
D48*
X026674Y038522D02*
D03*
X026300Y038522D02*
D03*
X025926Y038522D02*
D03*
X025926Y037578D02*
D03*
X026300Y037578D02*
D03*
X026674Y037578D02*
D03*
D49*
X022429Y038894D02*
D03*
X022429Y038500D02*
D03*
X022429Y038106D02*
D03*
X023571Y038106D02*
D03*
X023571Y038500D02*
D03*
X023571Y038894D02*
D03*
D50*
X023000Y038500D02*
D03*
D51*
X032250Y040509D02*
D03*
X032250Y039800D02*
D03*
D52*
X031262Y039750D02*
D03*
X030238Y039750D02*
D03*
X031262Y040700D02*
D03*
X030238Y040700D02*
D03*
D53*
X018250Y045550D02*
D03*
X018250Y049250D02*
D03*
D54*
X020552Y038800D02*
D03*
X021300Y038800D02*
D03*
X020926Y039686D02*
D03*
D55*
X016400Y029450D02*
D03*
X017400Y029450D02*
D03*
X018400Y029450D02*
D03*
X019400Y029450D02*
D03*
X020400Y029450D02*
D03*
X021400Y029450D02*
D03*
X022400Y029450D02*
D03*
X023400Y029450D02*
D03*
X024400Y029450D02*
D03*
X025400Y029450D02*
D03*
X026400Y029450D02*
D03*
X027400Y029450D02*
D03*
X028400Y029450D02*
D03*
X029400Y029450D02*
D03*
X030400Y029450D02*
D03*
X030400Y036450D02*
D03*
X029400Y036450D02*
D03*
X028400Y036450D02*
D03*
X027400Y036450D02*
D03*
X026400Y036450D02*
D03*
X025400Y036450D02*
D03*
X024400Y036450D02*
D03*
X023400Y036450D02*
D03*
X022400Y036450D02*
D03*
X021400Y036450D02*
D03*
X020400Y036450D02*
D03*
D56*
X019950Y040135D02*
D03*
X019950Y039565D02*
D03*
D57*
X031500Y045700D02*
D03*
X031500Y048700D02*
D03*
X020500Y048700D02*
D03*
X020500Y042700D02*
D03*
X017253Y042700D02*
D03*
X017253Y037976D02*
D03*
D58*
X026626Y040650D02*
D03*
X023674Y040650D02*
D03*
D59*
X018041Y040338D02*
D03*
X012450Y042700D02*
D03*
X012450Y037976D02*
D03*
D60*
X015687Y046231D02*
D03*
X015687Y048200D02*
D03*
X013719Y046231D02*
D03*
X011750Y046231D02*
D03*
X013719Y048200D02*
D03*
X011750Y048200D02*
D03*
D61*
X022047Y046063D02*
D03*
X029921Y038189D02*
D03*
M02*
