G04 Layer_Color=8421504*
%FSAX24Y24*%
%MOIN*%
G70*
G01*
G75*
%ADD11R,0.0197X0.0197*%
%ADD12R,0.0236X0.0394*%
%ADD13R,0.0394X0.0512*%
%ADD14R,0.0394X0.0236*%
%ADD15R,0.0256X0.0354*%
G04:AMPARAMS|DCode=16|XSize=17.7mil|YSize=33.5mil|CornerRadius=4.4mil|HoleSize=0mil|Usage=FLASHONLY|Rotation=90.000|XOffset=0mil|YOffset=0mil|HoleType=Round|Shape=RoundedRectangle|*
%AMROUNDEDRECTD16*
21,1,0.0177,0.0246,0,0,90.0*
21,1,0.0089,0.0335,0,0,90.0*
1,1,0.0089,0.0123,0.0044*
1,1,0.0089,0.0123,-0.0044*
1,1,0.0089,-0.0123,-0.0044*
1,1,0.0089,-0.0123,0.0044*
%
%ADD16ROUNDEDRECTD16*%
%ADD17R,0.0551X0.0984*%
%ADD18R,0.0512X0.0394*%
%ADD19R,0.0472X0.0709*%
G04:AMPARAMS|DCode=20|XSize=128mil|YSize=135mil|CornerRadius=32mil|HoleSize=0mil|Usage=FLASHONLY|Rotation=270.000|XOffset=0mil|YOffset=0mil|HoleType=Round|Shape=RoundedRectangle|*
%AMROUNDEDRECTD20*
21,1,0.1280,0.0711,0,0,270.0*
21,1,0.0640,0.1350,0,0,270.0*
1,1,0.0640,-0.0355,-0.0320*
1,1,0.0640,-0.0355,0.0320*
1,1,0.0640,0.0355,0.0320*
1,1,0.0640,0.0355,-0.0320*
%
%ADD20ROUNDEDRECTD20*%
%ADD21R,0.0236X0.0453*%
G04:AMPARAMS|DCode=22|XSize=118.1mil|YSize=78.7mil|CornerRadius=19.7mil|HoleSize=0mil|Usage=FLASHONLY|Rotation=270.000|XOffset=0mil|YOffset=0mil|HoleType=Round|Shape=RoundedRectangle|*
%AMROUNDEDRECTD22*
21,1,0.1181,0.0394,0,0,270.0*
21,1,0.0787,0.0787,0,0,270.0*
1,1,0.0394,-0.0197,-0.0394*
1,1,0.0394,-0.0197,0.0394*
1,1,0.0394,0.0197,0.0394*
1,1,0.0394,0.0197,-0.0394*
%
%ADD22ROUNDEDRECTD22*%
%ADD23R,0.0315X0.0236*%
D11*
X020467Y040500D02*
D03*
X021333Y040500D02*
D03*
D12*
X028195Y039450D02*
D03*
X027605Y039450D02*
D03*
X026478Y039450D02*
D03*
X025887Y039450D02*
D03*
X020505Y038150D02*
D03*
X021095Y038150D02*
D03*
X021095Y037550D02*
D03*
X020505Y037550D02*
D03*
D13*
X024546Y038850D02*
D03*
X025254Y038850D02*
D03*
X027496Y038750D02*
D03*
X028204Y038750D02*
D03*
D14*
X027500Y037555D02*
D03*
X027500Y038145D02*
D03*
D15*
X026674Y038522D02*
D03*
X026300Y038522D02*
D03*
X025926Y038522D02*
D03*
X025926Y037578D02*
D03*
X026300Y037578D02*
D03*
X026674Y037578D02*
D03*
D16*
X022429Y038894D02*
D03*
X022429Y038500D02*
D03*
X022429Y038106D02*
D03*
X023571Y038106D02*
D03*
X023571Y038500D02*
D03*
X023571Y038894D02*
D03*
D17*
X023000Y038500D02*
D03*
D18*
X032250Y040509D02*
D03*
X032250Y039800D02*
D03*
D19*
X031262Y039750D02*
D03*
X030238Y039750D02*
D03*
X031262Y040700D02*
D03*
X030238Y040700D02*
D03*
D20*
X018250Y045550D02*
D03*
X018250Y049250D02*
D03*
D21*
X020552Y038800D02*
D03*
X021300Y038800D02*
D03*
X020926Y039686D02*
D03*
D22*
X016400Y029450D02*
D03*
X017400Y029450D02*
D03*
X018400Y029450D02*
D03*
X019400Y029450D02*
D03*
X020400Y029450D02*
D03*
X021400Y029450D02*
D03*
X022400Y029450D02*
D03*
X023400Y029450D02*
D03*
X024400Y029450D02*
D03*
X025400Y029450D02*
D03*
X026400Y029450D02*
D03*
X027400Y029450D02*
D03*
X028400Y029450D02*
D03*
X029400Y029450D02*
D03*
X030400Y029450D02*
D03*
X030400Y036450D02*
D03*
X029400Y036450D02*
D03*
X028400Y036450D02*
D03*
X027400Y036450D02*
D03*
X026400Y036450D02*
D03*
X025400Y036450D02*
D03*
X024400Y036450D02*
D03*
X023400Y036450D02*
D03*
X022400Y036450D02*
D03*
X021400Y036450D02*
D03*
X020400Y036450D02*
D03*
D23*
X019950Y040135D02*
D03*
X019950Y039565D02*
D03*
M02*
