G04 Layer_Color=16711935*
%FSAX24Y24*%
%MOIN*%
G70*
G01*
G75*
%ADD57C,0.1261*%
G04:AMPARAMS|DCode=58|XSize=86.7mil|YSize=86.7mil|CornerRadius=23.7mil|HoleSize=0mil|Usage=FLASHONLY|Rotation=180.000|XOffset=0mil|YOffset=0mil|HoleType=Round|Shape=RoundedRectangle|*
%AMROUNDEDRECTD58*
21,1,0.0867,0.0394,0,0,180.0*
21,1,0.0394,0.0867,0,0,180.0*
1,1,0.0474,-0.0197,0.0197*
1,1,0.0474,0.0197,0.0197*
1,1,0.0474,0.0197,-0.0197*
1,1,0.0474,-0.0197,-0.0197*
%
%ADD58ROUNDEDRECTD58*%
G04:AMPARAMS|DCode=59|XSize=126.1mil|YSize=126.1mil|CornerRadius=33.5mil|HoleSize=0mil|Usage=FLASHONLY|Rotation=90.000|XOffset=0mil|YOffset=0mil|HoleType=Round|Shape=RoundedRectangle|*
%AMROUNDEDRECTD59*
21,1,0.1261,0.0591,0,0,90.0*
21,1,0.0591,0.1261,0,0,90.0*
1,1,0.0671,0.0295,0.0295*
1,1,0.0671,0.0295,-0.0295*
1,1,0.0671,-0.0295,-0.0295*
1,1,0.0671,-0.0295,0.0295*
%
%ADD59ROUNDEDRECTD59*%
G04:AMPARAMS|DCode=60|XSize=126.1mil|YSize=126.1mil|CornerRadius=33.5mil|HoleSize=0mil|Usage=FLASHONLY|Rotation=0.000|XOffset=0mil|YOffset=0mil|HoleType=Round|Shape=RoundedRectangle|*
%AMROUNDEDRECTD60*
21,1,0.1261,0.0591,0,0,0.0*
21,1,0.0591,0.1261,0,0,0.0*
1,1,0.0671,0.0295,-0.0295*
1,1,0.0671,-0.0295,-0.0295*
1,1,0.0671,-0.0295,0.0295*
1,1,0.0671,0.0295,0.0295*
%
%ADD60ROUNDEDRECTD60*%
%ADD61C,0.2049*%
G04:AMPARAMS|DCode=62|XSize=108mil|YSize=108mil|CornerRadius=29mil|HoleSize=0mil|Usage=FLASHONLY|Rotation=0.000|XOffset=0mil|YOffset=0mil|HoleType=Round|Shape=RoundedRectangle|*
%AMROUNDEDRECTD62*
21,1,0.1080,0.0500,0,0,0.0*
21,1,0.0500,0.1080,0,0,0.0*
1,1,0.0580,0.0250,-0.0250*
1,1,0.0580,-0.0250,-0.0250*
1,1,0.0580,-0.0250,0.0250*
1,1,0.0580,0.0250,0.0250*
%
%ADD62ROUNDEDRECTD62*%
%ADD63C,0.0580*%
D57*
X031500Y045700D02*
D03*
X031500Y048700D02*
D03*
X020500Y048700D02*
D03*
X020500Y042700D02*
D03*
X017253Y042700D02*
D03*
X017253Y037976D02*
D03*
D58*
X026626Y040650D02*
D03*
X023674Y040650D02*
D03*
D59*
X018041Y040338D02*
D03*
X012450Y042700D02*
D03*
X012450Y037976D02*
D03*
D60*
X015687Y046231D02*
D03*
X015687Y048200D02*
D03*
X013719Y046231D02*
D03*
X011750Y046231D02*
D03*
X013719Y048200D02*
D03*
X011750Y048200D02*
D03*
D61*
X022047Y046063D02*
D03*
X029921Y038189D02*
D03*
D62*
X023150Y030250D02*
D03*
X024650Y030300D02*
D03*
D63*
X023400Y030500D02*
D03*
X028350Y037750D02*
D03*
X024400Y030550D02*
D03*
M02*
